<?xml version="1.0" encoding="UTF-8"?>
<svg version="1.1" xmlns="http://www.w3.org/2000/svg" width="182" height="48">
<path d="M0 0 C5.17780166 -0.04954105 10.35546446 -0.08578636 15.53344727 -0.10986328 C17.29388839 -0.11990351 19.05431291 -0.13353844 20.81469727 -0.15087891 C23.34916285 -0.17521436 25.88340739 -0.18650296 28.41796875 -0.1953125 C29.20149216 -0.20563507 29.98501556 -0.21595764 30.7922821 -0.22659302 C34.97755404 -0.22744694 38.23883731 0.10796168 42 2 C42.02464775 7.53588533 42.04283496 13.071739 42.05493164 18.60766602 C42.05997244 20.4924373 42.06680498 22.37720465 42.07543945 24.26196289 C42.08751617 26.96501636 42.09323068 29.66801831 42.09765625 32.37109375 C42.10281754 33.21900986 42.10797882 34.06692596 42.11329651 34.9405365 C42.11349195 36.96071068 42.06206211 38.98077934 42 41 C40.25493385 42.74506615 37.80960857 42.23282784 35.43359375 42.31640625 C34.30888672 42.35830078 33.18417969 42.40019531 32.02539062 42.44335938 C30.84138672 42.48267578 29.65738281 42.52199219 28.4375 42.5625 C27.24962891 42.60568359 26.06175781 42.64886719 24.83789062 42.69335938 C21.89205216 42.79983546 18.9461257 42.90184841 16 43 C15.67 44.32 15.34 45.64 15 47 C14.34 47 13.68 47 13 47 C13 39.74 13 32.48 13 25 C19 28 19 28 21 30 C21.598125 29.360625 22.19625 28.72125 22.8125 28.0625 C25 26 25 26 28 25 C28.33 27.97 28.66 30.94 29 34 C30.32 33.34 31.64 32.68 33 32 C33 24.74 33 17.48 33 10 C29.56611609 13.43388391 26.6921909 16.96171365 24 21 C23.01904252 22.01868662 22.02297922 23.02351983 21 24 C18.00675737 22.9024777 17.15389099 22.32317108 15.75 19.375 C15.5025 18.59125 15.255 17.8075 15 17 C14.34 17 13.68 17 13 17 C12.71125 16.195625 12.4225 15.39125 12.125 14.5625 C11.26737432 11.8673532 11.26737432 11.8673532 9 11 C8.67 21.23 8.34 31.46 8 42 C5.36 42 2.72 42 0 42 C-2.52889255 38.20666117 -2.17839542 35.31135469 -2.01171875 30.9375 C-1.98906448 30.14980225 -1.96641022 29.36210449 -1.94306946 28.55053711 C-1.89314181 26.88607603 -1.83818175 25.22175938 -1.77856445 23.55761719 C-1.68785569 21.00998994 -1.61311171 18.46227758 -1.54101562 15.9140625 C-1.49052265 14.2968454 -1.43912085 12.67965637 -1.38671875 11.0625 C-1.36373215 10.29993896 -1.34074554 9.53737793 -1.31706238 8.75170898 C-1.20021805 5.6056705 -1.0015593 3.0046779 0 0 Z " fill="#FF8C00" transform="translate(2,0)"/>
<path d="M0 0 C2.31 0 4.62 0 7 0 C8.32 2.64 9.64 5.28 11 8 C11.66 8 12.32 8 13 8 C13.474375 7.05125 13.94875 6.1025 14.4375 5.125 C15.29166667 3.41666667 16.14583333 1.70833333 17 0 C18.98 0 20.96 0 23 0 C23.33 6.27 23.66 12.54 24 19 C27.46761546 12.07905622 27.46761546 12.07905622 30 5 C31 2 31 2 34 0 C36.4375 -0.1875 36.4375 -0.1875 39 1 C40.77737839 3.83250054 41.87818643 6.85988081 43 10 C43.30164063 10.83402344 43.60328125 11.66804687 43.9140625 12.52734375 C46 18.54147196 46 18.54147196 46 21 C44.02 21 42.04 21 40 21 C39.505 19.515 39.505 19.515 39 18 C36.69 17.67 34.38 17.34 32 17 C31.67 18.32 31.34 19.64 31 21 C27.04 21 23.08 21 19 21 C18.67 18.36 18.34 15.72 18 13 C17.62875 14.134375 17.2575 15.26875 16.875 16.4375 C16.06640625 18.375 16.06640625 18.375 15 20 C11.8125 20.9375 11.8125 20.9375 9 21 C7.47551369 18.0173094 6.06059933 15.181798 5 12 C5.020625 13.11375 5.04125 14.2275 5.0625 15.375 C5 19 5 19 4 21 C2.68 21 1.36 21 0 21 C0 14.07 0 7.14 0 0 Z M35 10 C34.34 10.66 33.68 11.32 33 12 C35.475 12.495 35.475 12.495 38 13 C37.67 12.01 37.34 11.02 37 10 C36.34 10 35.68 10 35 10 Z " fill="#1A1A1A" transform="translate(51,2)"/>
<path d="M0 0 C1.98 0 3.96 0 6 0 C6 5.61 6 11.22 6 17 C8.97 17 11.94 17 15 17 C15.1134375 16.28199219 15.226875 15.56398438 15.34375 14.82421875 C16.03618776 11.8442634 17.09033603 9.52118571 18.5 6.8125 C18.9434375 5.95269531 19.386875 5.09289062 19.84375 4.20703125 C20.2253125 3.47871094 20.606875 2.75039062 21 2 C21.33 1.34 21.66 0.68 22 0 C23.98 0 25.96 0 28 0 C29.19498991 2.94151363 30.33678721 5.89728223 31.4375 8.875 C32.84028372 12.63961344 34.38983734 16.3196282 36 20 C35 21 35 21 31.9375 21.0625 C30.968125 21.041875 29.99875 21.02125 29 21 C28.67 20.01 28.34 19.02 28 18 C25.69 18 23.38 18 21 18 C20.67 18.99 20.34 19.98 20 21 C13.73 21 7.46 21 1 21 C0.67 14.07 0.34 7.14 0 0 Z M23 9 C23.33 9.99 23.66 10.98 24 12 C23.01 12.495 23.01 12.495 22 13 C23.65 13 25.3 13 27 13 C26.34 12.67 25.68 12.34 25 12 C25.33 11.01 25.66 10.02 26 9 C25.01 9 24.02 9 23 9 Z " fill="#1A1A1A" transform="translate(145,2)"/>
<path d="M0 0 C6.02422959 1.5060574 9.77724045 5.61482662 14 10 C14 6.7 14 3.4 14 0 C15.98 0 17.96 0 20 0 C20 6.93 20 13.86 20 21 C15.53755853 19.88438963 14.05855726 18.52838902 10.75 15.4375 C9.41195312 14.19806641 9.41195312 14.19806641 8.046875 12.93359375 C7.37140625 12.29550781 6.6959375 11.65742188 6 11 C5.67 14.3 5.34 17.6 5 21 C3.35 21.33 1.7 21.66 0 22 C0 14.74 0 7.48 0 0 Z " fill="#1A1A1A" transform="translate(98,2)"/>
<path d="M0 0 C1.98 0 3.96 0 6 0 C5.67 5.61 5.34 11.22 5 17 C7.97 17 10.94 17 14 17 C14 18.32 14 19.64 14 21 C9.38 21.33 4.76 21.66 0 22 C0 14.74 0 7.48 0 0 Z " fill="#1A1A1A" transform="translate(130,2)"/>
<path d="M0 0 C1.98 0 3.96 0 6 0 C6 7.26 6 14.52 6 22 C4.35 21.67 2.7 21.34 1 21 C0.67 14.07 0.34 7.14 0 0 Z " fill="#1A1A1A" transform="translate(121,2)"/>
<path d="M0 0 C4 2 4 2 7 4 C7.33 2.68 7.66 1.36 8 0 C8.99 0 9.98 0 11 0 C11 3.96 11 7.92 11 12 C7.16263678 11.04065919 6.40339772 10.76390737 4 8 C3.67 9.32 3.34 10.64 3 12 C2.01 12 1.02 12 0 12 C0 8.04 0 4.08 0 0 Z " fill="#1A1A1A" transform="translate(127,29)"/>
<path d="M0 0 C2.3125 0.0625 2.3125 0.0625 5 1 C6.70004794 4.27866388 7.8348895 7.50466851 9 11 C8.67 11.66 8.34 12.32 8 13 C6.948125 12.814375 5.89625 12.62875 4.8125 12.4375 C1.42880118 12.04920669 -0.76425888 12.11752515 -4 13 C-3.40895235 8.15340923 -2.02055843 4.39251833 0 0 Z M2 6 C1.67 6.66 1.34 7.32 1 8 C1.66 8 2.32 8 3 8 C2.67 7.34 2.34 6.68 2 6 Z " fill="#1A1A1A" transform="translate(109,28)"/>
<path d="M0 0 C4 2 4 2 7 4 C7.33 2.68 7.66 1.36 8 0 C8.99 0 9.98 0 11 0 C11 3.96 11 7.92 11 12 C7.16263678 11.04065919 6.40339772 10.76390737 4 8 C3.67 9.32 3.34 10.64 3 12 C2.01 12 1.02 12 0 12 C0 8.04 0 4.08 0 0 Z " fill="#1A1A1A" transform="translate(84,29)"/>
<path d="M0 0 C3.3 0 6.6 0 10 0 C10 1.32 10 2.64 10 4 C7.36 4 4.72 4 2 4 C2 5.32 2 6.64 2 8 C3.98 7.67 5.96 7.34 8 7 C10 10.875 10 10.875 10 12 C6.7 12 3.4 12 0 12 C-1.86870807 8.26258387 -2.41702384 6.96172649 -2 3 C-1.34 2.34 -0.68 1.68 0 1 C0 0.67 0 0.34 0 0 Z " fill="#1A1A1A" transform="translate(150,29)"/>
<path d="M0 0 C2.97 0 5.94 0 9 0 C9 0.99 9 1.98 9 3 C7.02 3 5.04 3 3 3 C3 3.66 3 4.32 3 5 C4.65 5 6.3 5 8 5 C8 5.66 8 6.32 8 7 C6.35 7 4.7 7 3 7 C3 7.66 3 8.32 3 9 C4.98 9 6.96 9 9 9 C9 9.99 9 10.98 9 12 C6.03 12 3.06 12 0 12 C0 8.04 0 4.08 0 0 Z " fill="#1A1A1A" transform="translate(170,29)"/>
<path d="M0 0 C4.62 0 9.24 0 14 0 C12.04783565 3.90432869 10.12613393 6.03839944 7 9 C5.83037314 7.69013727 4.66437056 6.3770374 3.5 5.0625 C2.8503125 4.33160156 2.200625 3.60070312 1.53125 2.84765625 C0 1 0 1 0 0 Z " fill="#FF6600" transform="translate(15,6)"/>
<path d="M0 0 C2.64 0 5.28 0 8 0 C8 0.99 8 1.98 8 3 C6.35 3 4.7 3 3 3 C3 3.66 3 4.32 3 5 C4.32 5 5.64 5 7 5 C7.33 5.99 7.66 6.98 8 8 C6.35 8 4.7 8 3 8 C3 9.32 3 10.64 3 12 C2.01 12 1.02 12 0 12 C0 8.04 0 4.08 0 0 Z " fill="#1A1A1A" transform="translate(52,29)"/>
<path d="M0 0 C0.99 0 1.98 0 3 0 C3 3.96 3 7.92 3 12 C2.01 12 1.02 12 0 12 C0 8.04 0 4.08 0 0 Z " fill="#1A1A1A" transform="translate(70,29)"/>
<path d="" fill="#1A1A1A" transform="translate(0,0)"/>
<path d="" fill="#1A1A1A" transform="translate(0,0)"/>
<path d="" fill="#1A1A1A" transform="translate(0,0)"/>
<path d="" fill="#1A1A1A" transform="translate(0,0)"/>
<path d="" fill="#1A1A1A" transform="translate(0,0)"/>
<path d="" fill="#1A1A1A" transform="translate(0,0)"/>
<path d="" fill="#1A1A1A" transform="translate(0,0)"/>
<path d="" fill="#1A1A1A" transform="translate(0,0)"/>
<path d="" fill="#1A1A1A" transform="translate(0,0)"/>
<path d="" fill="#1A1A1A" transform="translate(0,0)"/>
<path d="" fill="#1A1A1A" transform="translate(0,0)"/>
<path d="" fill="#1A1A1A" transform="translate(0,0)"/>
<path d="" fill="#1A1A1A" transform="translate(0,0)"/>
<path d="" fill="#1A1A1A" transform="translate(0,0)"/>
<path d="" fill="#1A1A1A" transform="translate(0,0)"/>
<path d="" fill="#1A1A1A" transform="translate(0,0)"/>
<path d="" fill="#1A1A1A" transform="translate(0,0)"/>
<path d="" fill="#1A1A1A" transform="translate(0,0)"/>
<path d="" fill="#1A1A1A" transform="translate(0,0)"/>
<path d="" fill="#1A1A1A" transform="translate(0,0)"/>
<path d="" fill="#1A1A1A" transform="translate(0,0)"/>
<path d="" fill="#1A1A1A" transform="translate(0,0)"/>
<path d="" fill="#1A1A1A" transform="translate(0,0)"/>
<path d="" fill="#1A1A1A" transform="translate(0,0)"/>
<path d="" fill="#1A1A1A" transform="translate(0,0)"/>
<path d="" fill="#1A1A1A" transform="translate(0,0)"/>
<path d="" fill="#1A1A1A" transform="translate(0,0)"/>
<path d="" fill="#1A1A1A" transform="translate(0,0)"/>
<path d="" fill="#1A1A1A" transform="translate(0,0)"/>
<path d="" fill="#1A1A1A" transform="translate(0,0)"/>
<path d="" fill="#1A1A1A" transform="translate(0,0)"/>
<path d="" fill="#1A1A1A" transform="translate(0,0)"/>
<path d="" fill="#1A1A1A" transform="translate(0,0)"/>
<path d="" fill="#1A1A1A" transform="translate(0,0)"/>
<path d="" fill="#1A1A1A" transform="translate(0,0)"/>
<path d="" fill="#1A1A1A" transform="translate(0,0)"/>
<path d="" fill="#1A1A1A" transform="translate(0,0)"/>
<path d="" fill="#1A1A1A" transform="translate(0,0)"/>
<path d="" fill="#1A1A1A" transform="translate(0,0)"/>
<path d="" fill="#1A1A1A" transform="translate(0,0)"/>
<path d="" fill="#1A1A1A" transform="translate(0,0)"/>
<path d="" fill="#1A1A1A" transform="translate(0,0)"/>
<path d="" fill="#1A1A1A" transform="translate(0,0)"/>
<path d="" fill="#1A1A1A" transform="translate(0,0)"/>
<path d="" fill="#1A1A1A" transform="translate(0,0)"/>
<path d="" fill="#1A1A1A" transform="translate(0,0)"/>
<path d="" fill="#1A1A1A" transform="translate(0,0)"/>
<path d="" fill="#1A1A1A" transform="translate(0,0)"/>
<path d="" fill="#1A1A1A" transform="translate(0,0)"/>
<path d="" fill="#1A1A1A" transform="translate(0,0)"/>
<path d="" fill="#1A1A1A" transform="translate(0,0)"/>
<path d="" fill="#1A1A1A" transform="translate(0,0)"/>
<path d="" fill="#1A1A1A" transform="translate(0,0)"/>
<path d="" fill="#1A1A1A" transform="translate(0,0)"/>
<path d="" fill="#1A1A1A" transform="translate(0,0)"/>
<path d="" fill="#1A1A1A" transform="translate(0,0)"/>
<path d="" fill="#1A1A1A" transform="translate(0,0)"/>
<path d="" fill="#1A1A1A" transform="translate(0,0)"/>
<path d="" fill="#1A1A1A" transform="translate(0,0)"/>
<path d="" fill="#1A1A1A" transform="translate(0,0)"/>
<path d="" fill="#1A1A1A" transform="translate(0,0)"/>
<path d="" fill="#1A1A1A" transform="translate(0,0)"/>
<path d="" fill="#1A1A1A" transform="translate(0,0)"/>
<path d="" fill="#1A1A1A" transform="translate(0,0)"/>
<path d="" fill="#1A1A1A" transform="translate(0,0)"/>
<path d="" fill="#1A1A1A" transform="translate(0,0)"/>
<path d="" fill="#1A1A1A" transform="translate(0,0)"/>
</svg>
